<?xml version="1.0" ?><!DOCTYPE svg  PUBLIC '-//W3C//DTD SVG 1.1//EN'  'http://www.w3.org/Graphics/SVG/1.1/DTD/svg11.dtd'><svg viewBox="0 0 56.693 56.693" xmlns="http://www.w3.org/2000/svg" xmlns:xlink="http://www.w3.org/1999/xlink"><style>:root>svg{display:none}:root>svg:target{display:block}</style><svg viewBox="0 0 32 32" id="email" xmlns="http://www.w3.org/2000/svg"><g data-name="mail email e-mail letter"><path d="M28 13a1 1 0 00-1 1v8a1 1 0 01-1 1H6a1 1 0 01-1-1v-8a1 1 0 00-2 0v8a3 3 0 00.88 2.12A3 3 0 006 25h20a3 3 0 002.12-.88A3 3 0 0029 22v-8a1 1 0 00-1-1z"/><path d="M15.4 18.8a1 1 0 001.2 0l11.81-8.86a1 1 0 00.3-1.23 3.06 3.06 0 00-.59-.83A3 3 0 0026 7H6a3 3 0 00-2.12.88 3.06 3.06 0 00-.59.83 1 1 0 00.3 1.23zM6 9h20a.9.9 0 01.28 0L16 16.75 5.72 9A.9.9 0 016 9z"/></g></svg><svg viewBox="0 0 32 32" id="git" xmlns="http://www.w3.org/2000/svg"><path d="M16 3a13 13 0 00-3.46 25.53 1 1 0 10.53-1.92 11 11 0 117-.4 15.85 15.85 0 00-.3-3.92A6.27 6.27 0 0024.68 16a6.42 6.42 0 00-1.05-3.87 7.09 7.09 0 00-.4-3.36 1 1 0 00-1.1-.67 8 8 0 00-3.37 1.28A11.35 11.35 0 0016 9a13.09 13.09 0 00-3 .43 5.74 5.74 0 00-3.38-1.18 1 1 0 00-1 .66 7.06 7.06 0 00-.37 3.19A7.15 7.15 0 007.2 16a6.66 6.66 0 005 6.28 7.43 7.43 0 00-.15.79c-1 .06-1.58-.55-2.32-1.48a3.45 3.45 0 00-1.94-1.53 1 1 0 00-1.15.76A1 1 0 007.35 22c.16 0 .55.52.77.81a4.74 4.74 0 003.75 2.25 4.83 4.83 0 001.3-.18 1 1 0 00.29-.14.72.72 0 00.18-.21.34.34 0 00.08-.09.85.85 0 00.06-.17 1.52 1.52 0 00.06-.2 4.11 4.11 0 01.46-1.91 1 1 0 00-.76-1.65A4.6 4.6 0 019.2 16a4.84 4.84 0 01.87-3 1 1 0 00.24-.83 5 5 0 010-1.85 3.59 3.59 0 011.74.92 1 1 0 001 .23A12.49 12.49 0 0116 11a9.91 9.91 0 012.65.43 1 1 0 001-.18 5 5 0 012-1 4.11 4.11 0 010 1.91 1.05 1.05 0 00.32 1 4 4 0 01.71 2.84 4.29 4.29 0 01-4.41 4.46 1 1 0 00-.94.65 1 1 0 00.28 1.11c.59.51.5 4 .47 5.36a1 1 0 00.38.81 1 1 0 00.62.21 1.07 1.07 0 00.25 0A13 13 0 0016 3z" data-name="github coding dev developer"/></svg><svg viewBox="0 0 56.693 56.693" id="html" xmlns="http://www.w3.org/2000/svg"><path d="M16.356 9.799h2.026v2.219h2.216V5.391h-2.216v2.19h-2.026v-2.19h-2.215v6.627h2.215zM23.51 12.018h2.215V7.59h1.949V5.391h-6.113V7.59h1.949zM30.812 8.735l1.526 2.355h.037l1.523-2.355v3.283h2.207V5.391h-2.31l-1.42 2.332-1.42-2.332h-2.309v6.627h2.166zM42.537 9.829h-3.115V5.391h-2.215v6.627h5.33zM10.949 14.926l3.168 35.532 14.221 3.947L42.57 50.46l3.174-35.534H10.949zm27.922 11.62H22.194l.398 4.463h15.883L37.28 44.392l-8.934 2.475-.006.002-8.928-2.477-.623-7h4.374l.324 3.631 4.854 1.312.006-.002 4.859-1.312.506-5.652H18.608L17.431 22.19H39.26l-.389 4.356z"/></svg><svg viewBox="0 0 32 32" id="phone" xmlns="http://www.w3.org/2000/svg"><path d="M27.36 6.15l-2.27-2.27a3 3 0 00-4.54.35l-2.21 3a3 3 0 00-.44 2.66l.13.38c.27.89.62 2 .84 2.74a1 1 0 01-.05.7 12.44 12.44 0 01-2.08 3 1 1 0 000 1.42 1 1 0 001.41 0 14.14 14.14 0 002.46-3.51 2.92 2.92 0 00.17-2.17c-.21-.72-.57-1.86-.85-2.75l-.12-.39a1 1 0 01.19-.87l2.21-3a1 1 0 011.51-.12l.67.67-2 3.1a1 1 0 00.84 1.54 1 1 0 00.84-.45l1.77-2.74.16.15a2.59 2.59 0 01.68 1.88c0 1.76-1.19 5-6.73 10.44-5.81 5.7-10.42 8-12.33 6.07l-2.33-2.3A1 1 0 015 22.9a1 1 0 01.41-.73l3-2.21a1 1 0 01.88-.15l1.89.59-2.13 1.51a1 1 0 00-.24 1.4 1 1 0 00.82.42 1 1 0 00.57-.18l3.8-2.67a1 1 0 00.25-1.4 1 1 0 00-.53-.36l-3.8-1.22a3 3 0 00-2.66.44l-3 2.21a3 3 0 00-.35 4.54l2.27 2.28a4.31 4.31 0 003.12 1.26c2.52 0 6.32-1.75 12-7.32 4.84-4.75 7.31-8.74 7.33-11.86a4.46 4.46 0 00-1.27-3.3z" data-name="phone celuler contact call"/></svg><svg viewBox="0 0 32 32" id="pin" xmlns="http://www.w3.org/2000/svg"><g data-name="locate location map pin"><path d="M23.78 6.15A11 11 0 008.22 21.71l4.1 4.1a1 1 0 101.42-1.42l-4.1-4.1a9 9 0 1112.72 0l-7.07 7.07a1 1 0 000 1.42 1 1 0 001.42 0l7.07-7.07a11 11 0 000-15.56z"/><path d="M21 14a5 5 0 10-5 5 5 5 0 005-5zm-8 0a3 3 0 113 3 3 3 0 01-3-3z"/></g></svg><svg viewBox="0 0 48 48" id="quote" xmlns="http://www.w3.org/2000/svg"><g fill="#fff" fill-rule="evenodd"><path d="M5.377 18.834c.254.776.689 1.49 1.299 2.13.637.673 1.474 1.195 2.514 1.569 1.035.372 2.369.564 4.015.564h2.233c-.268 2.743-1.247 5.08-2.936 7.012-1.689 1.928-4.033 3.621-7.027 5.075L7.289 38a27.298 27.298 0 0010.117-7.38c2.803-3.247 4.196-6.464 4.196-9.655 0-3.428-.807-6.116-2.438-8.058-1.631-1.942-3.965-2.905-7.006-2.905-1.924 0-3.601.64-5.023 1.925C5.711 13.212 5 14.715 5 16.43c0 .823.127 1.628.377 2.404m20.398 0c.252.776.69 1.49 1.297 2.13.639.673 1.477 1.195 2.512 1.569 1.039.372 2.373.564 4.018.564h2.23c-.266 2.743-1.244 5.08-2.934 7.012-1.691 1.928-4.031 3.621-7.027 5.075L27.688 38a27.322 27.322 0 0010.117-7.38C40.606 27.373 42 24.156 42 20.965c0-3.428-.809-6.116-2.439-8.058-1.629-1.942-3.963-2.905-7.004-2.905-1.928 0-3.602.64-5.024 1.925-1.424 1.285-2.135 2.788-2.135 4.503 0 .823.124 1.628.377 2.404"/></g></svg><svg viewBox="0 0 48 48" id="responsive" xmlns="http://www.w3.org/2000/svg"><g data-name="49-Responsive"><path d="M45 0H3a3 3 0 00-3 3v32a3 3 0 003 3h13v4.28l-2.32.77A1 1 0 0013 44v2h-2v2h17v-2H15v-1.28l2.16-.72H28v-2H18v-4h10v-2H3a1 1 0 01-1-1v-6h26v-2H2V3a1 1 0 011-1h42a1 1 0 011 1v15h2V3a3 3 0 00-3-3z"/><path d="M46 20H32a2 2 0 00-2 2v24a2 2 0 002 2h14a2 2 0 002-2V22a2 2 0 00-2-2zm0 26H32v-3h14zm0-5H32V27h14zm0-16H32v-3h14z"/></g></svg><svg data-name="Layer 1" id="seo" viewBox="0 0 48 48" xmlns="http://www.w3.org/2000/svg"><defs><style>.hcls-1,.hcls-2,.hcls-3{fill:none;stroke:#353535;stroke-width:2px}.hcls-1,.hcls-3{stroke-miterlimit:10}.hcls-2,.hcls-3{stroke-linecap:round}.hcls-2{stroke-linejoin:round}</style></defs><circle class="hcls-1" cx="30.763" cy="30.263" r="11.5"/><path class="hcls-2" d="M38.687 38.688l8.34 8.339M21.496 42a20.5 20.5 0 1120.5-20.5"/><path class="hcls-3" d="M21.496 1v17.375"/><path class="hcls-2" d="M16.735 31.917a41.514 41.514 0 00-11.376 2.198"/><path class="hcls-1" d="M5.36 8.885c3.752 1.437 9.577 2.365 16.136 2.365s12.383-.928 16.136-2.365"/><path class="hcls-2" d="M33.307 15.762C31.818 7.232 27.094 1 21.496 1c-6.793 0-12.3 9.178-12.3 20.5S14.703 42 21.496 42M18.75 21.5H.816"/></svg><svg viewBox="0 0 32 32" id="skype" xmlns="http://www.w3.org/2000/svg"><g data-name="skype conference video call"><path d="M14.52 11.34a4.37 4.37 0 014.22.22 1 1 0 001.18-1.62 6.36 6.36 0 00-6.3-.38 3.56 3.56 0 00-2.15 3.17c0 2.62 2.29 3.49 3.66 4 .17.06.34.12.49.19l.43.16c1.42.55 2.28 1 2.28 2.31a1.27 1.27 0 01-.81 1.18A4.87 4.87 0 0113 20.3a1 1 0 10-1.07 1.7 6.87 6.87 0 003.68 1 6 6 0 002.87-.67 3.27 3.27 0 001.85-2.93c0-2.8-2.23-3.66-3.56-4.17l-.39-.16-.54-.2c-1.43-.54-2.37-1-2.37-2.14a1.65 1.65 0 011.05-1.39z"/><path d="M28.85 17.9a12.92 12.92 0 00-9.6-14.49 1 1 0 00-.5 1.94A11 11 0 0127 16a10.52 10.52 0 01-.17 1.91.27.27 0 000 .09 1 1 0 000 .3 1.14 1.14 0 00.15.36A5.92 5.92 0 0128 22a6 6 0 01-6 6 5.92 5.92 0 01-3.34-1h-.11a1.12 1.12 0 00-.25-.11 1 1 0 00-.35 0A10.6 10.6 0 0116 27 11 11 0 015 16a10.52 10.52 0 01.17-1.91.21.21 0 000-.08 1.07 1.07 0 000-.31 1.14 1.14 0 00-.17-.36A5.92 5.92 0 014 10a6 6 0 016-6 5.92 5.92 0 013.34 1 1 1 0 001.12-1.66A8 8 0 003.15 14.1 12.93 12.93 0 0017.9 28.85a8 8 0 0011-11z"/></g></svg><svg viewBox="0 0 32 32" id="telegram" xmlns="http://www.w3.org/2000/svg"><path d="M28.59 4.29a2.23 2.23 0 00-2.27-.36L3.41 13.1a1.83 1.83 0 000 3.38l1.48.61a1 1 0 001.31-.53 1 1 0 00-.54-1.31l-1.1-.45 22.51-9a.22.22 0 01.23 0 .24.24 0 01.08.23l-4.11 19.18a.4.4 0 01-.26.3.39.39 0 01-.39-.06l-8-6.24 7.83-7.91a1 1 0 00-1.22-1.56l-11.48 6.8a1 1 0 101 1.72l4.83-2.85-2.35 2.39a2 2 0 00.2 3.08l8 6.15a2.4 2.4 0 001.47.5 2.47 2.47 0 00.83-.15 2.37 2.37 0 001.52-1.75l4.08-19.16a2.23 2.23 0 00-.74-2.18z" data-name="telegram social media network chat"/></svg><svg viewBox="0 0 48 48" id="wallet" xmlns="http://www.w3.org/2000/svg"><path clip-rule="evenodd" d="M47 40a5 5 0 01-5 5H6a5 5 0 01-5-5V11a4 4 0 014-4h20.171l8.099-2.934a.99.99 0 011.268.589L35.391 7H39a4 4 0 014 4v2a4 4 0 014 4v23zM5 9a2 2 0 000 4h3.634c.013-.005.021-.016.034-.021L19.65 9H5zm29.078.181l-1.062-2.924h-.001L30.964 7h.003l-5.514 2h-.01l-11.039 4h21.062l-1.388-3.819zM41 11a2 2 0 00-2-2h-2.883l1.454 4H41v-2zm2 4H5c-.732 0-1.41-.211-2-.555V40a3 3 0 003 3h36a3 3 0 003-3v-7h-4a4 4 0 010-8h4v-8a2 2 0 00-2-2zm2 16v-4h-4a2 2 0 000 4h4zm-4-3h2v2h-2v-2z" fill-rule="evenodd"/></svg></svg>